<?xml version="1.0" standalone="no"?>
<!DOCTYPE svg PUBLIC "-//W3C//DTD SVG 20010904//EN"
 "http://www.w3.org/TR/2001/REC-SVG-20010904/DTD/svg10.dtd">
<svg version="1.0" xmlns="http://www.w3.org/2000/svg"
 width="640.000000pt" height="640.000000pt" viewBox="0 0 640.000000 640.000000"
 preserveAspectRatio="xMidYMid meet">

<g transform="translate(0.000000,640.000000) scale(0.100000,-0.100000)"
fill="#000000" stroke="none">
<path d="M3190 4673 c0 -23 -3 -48 -6 -57 -3 -9 -1 -16 5 -16 6 0 11 17 11 37
l0 37 38 -37 c21 -20 41 -37 45 -37 4 0 7 25 7 55 0 30 -3 55 -8 55 -4 0 -6
-19 -4 -42 l4 -43 -46 45 -46 44 0 -41z"/>
<path d="M3143 4034 c-45 -267 -84 -488 -86 -491 -3 -2 -103 66 -222 151 -119
86 -219 156 -221 156 -6 0 45 -72 203 -290 94 -130 110 -156 95 -162 -13 -6
-924 -174 -967 -179 -6 -1 13 -7 40 -13 36 -9 121 -10 310 -5 353 10 743 11
748 2 3 -5 7 -21 11 -38 6 -28 2 -32 -50 -62 -30 -18 -63 -33 -73 -33 -9 0
-89 11 -177 24 -547 84 -638 97 -657 94 -12 -2 163 -36 390 -77 227 -41 417
-78 424 -81 7 -5 -36 -77 -123 -206 -73 -109 -142 -212 -153 -228 -26 -40 -46
-53 315 207 58 41 108 72 111 69 4 -4 14 -58 24 -119 10 -62 20 -113 23 -113
2 0 31 12 63 26 l59 27 0 148 0 148 35 7 c20 3 37 5 39 3 1 -2 17 -28 35 -57
30 -51 31 -56 21 -109 -5 -31 -8 -59 -5 -61 12 -12 45 33 45 62 0 50 12 60 42
36 32 -25 36 -25 71 3 l27 23 -89 95 c-73 77 -87 96 -77 107 22 22 126 -48
173 -115 20 -30 39 -50 41 -44 2 6 -13 31 -32 57 -20 26 -35 48 -33 50 1 1 56
12 122 23 l120 20 58 62 c31 34 57 66 57 72 0 7 -77 8 -235 4 l-234 -7 -7 35
c-8 42 0 52 60 85 l46 25 217 -32 c165 -24 219 -29 225 -20 5 9 -49 21 -203
47 -146 24 -208 38 -205 46 3 7 73 114 156 239 83 125 150 228 148 230 -2 1
-101 -69 -221 -156 -120 -88 -221 -159 -225 -159 -4 0 -21 84 -39 188 -105
620 -125 739 -131 755 -4 9 -44 -202 -89 -469z m88 -616 c-4 -4 -21 -9 -39
-10 -30 -3 -35 1 -64 54 l-32 57 64 438 65 438 6 -485 c3 -267 3 -488 0 -492z
m484 320 c-28 -29 -117 -121 -200 -205 -129 -133 -151 -151 -163 -139 -13 13
-10 22 19 75 31 54 52 73 209 190 96 72 177 130 180 131 2 0 -18 -23 -45 -52z
m-650 -340 c36 -34 38 -39 24 -53 -14 -15 -21 -13 -77 20 -54 33 -76 57 -185
203 -67 92 -127 174 -132 182 -4 8 68 -59 161 -149 93 -90 187 -182 209 -203z
m253 -56 c40 -29 65 -93 57 -144 -10 -56 -67 -113 -123 -123 -57 -9 -126 24
-154 75 -24 43 -20 119 9 158 46 63 147 79 211 34z m-183 -282 c4 -6 -9 -39
-28 -73 -30 -56 -51 -76 -203 -193 -93 -73 -171 -130 -173 -128 -2 1 33 40 76
86 44 46 129 136 188 201 103 112 126 129 140 107z"/>
<path d="M3158 3333 c-42 -26 -62 -72 -56 -127 13 -109 140 -153 217 -75 81
81 26 219 -87 219 -26 0 -59 -8 -74 -17z"/>
<path d="M3596 4379 c2 -4 23 -9 46 -13 182 -29 381 -141 453 -256 24 -39 51
-143 60 -235 19 -198 -80 -460 -258 -680 -210 -260 -604 -533 -917 -634 -153
-50 -225 -62 -395 -68 -152 -5 -220 1 -365 32 l-25 6 25 -12 c110 -48 335 -74
507 -58 771 71 1529 751 1533 1372 0 91 -26 211 -58 267 -68 117 -210 218
-361 256 -66 16 -252 34 -245 23z"/>
<path d="M3130 4354 c-186 -27 -288 -57 -415 -122 -284 -146 -499 -411 -580
-713 -27 -103 -46 -247 -33 -255 13 -8 25 34 37 128 44 341 281 661 609 823
119 59 207 83 400 111 19 3 32 11 32 19 0 15 -3 15 -50 9z"/>
<path d="M3280 4345 c0 -8 3 -15 8 -15 4 0 51 -7 105 -15 274 -41 532 -188
706 -400 33 -40 33 -40 26 -10 -9 39 -77 118 -162 187 -176 144 -347 219 -569
253 -121 18 -114 18 -114 0z"/>
<path d="M3043 4275 c-442 -80 -791 -431 -868 -874 -18 -103 -19 -121 -2 -121
10 0 18 27 26 88 37 266 184 515 399 677 152 114 311 182 487 206 59 8 85 16
85 26 0 16 -30 16 -127 -2z"/>
<path d="M3290 4275 c0 -9 10 -15 26 -15 52 0 227 -41 302 -71 171 -68 350
-207 459 -356 40 -53 49 -61 51 -43 4 25 -50 100 -134 185 -156 157 -357 263
-573 300 -107 19 -131 19 -131 0z"/>
<path d="M4268 3658 c-2 -12 7 -53 19 -90 24 -74 53 -214 53 -259 0 -19 5 -29
15 -29 19 0 19 24 0 132 -13 74 -66 252 -79 265 -2 3 -6 -6 -8 -19z"/>
<path d="M4237 3551 c-3 -12 1 -45 9 -74 7 -28 17 -81 20 -115 5 -40 12 -66
21 -69 8 -3 15 -4 17 -2 11 12 -38 255 -54 272 -4 5 -10 -1 -13 -12z"/>
<path d="M4115 3290 c-9 -14 2 -17 140 -36 l130 -19 -155 -3 -155 -4 -33 -45
c-18 -25 -32 -46 -30 -48 2 -1 125 19 273 45 149 27 266 49 262 49 -10 1 -355
58 -399 66 -15 2 -30 0 -33 -5z"/>
<path d="M4630 3220 l0 -60 35 0 c19 0 35 4 35 8 0 5 -10 8 -22 8 -17 -1 -23
5 -23 19 0 13 6 20 18 19 9 -1 17 2 17 7 0 5 -9 9 -20 9 -11 0 -20 7 -20 15 0
9 10 15 26 15 14 0 23 4 19 10 -3 6 -19 10 -36 10 -29 0 -29 0 -29 -60z"/>
<path d="M1727 3223 c22 -67 29 -71 48 -27 l17 39 15 -37 c8 -21 18 -38 22
-38 3 0 11 17 18 38 6 20 15 45 18 55 4 9 3 17 -3 17 -6 0 -14 -16 -18 -35 -3
-19 -9 -35 -13 -35 -3 0 -13 17 -22 38 l-15 37 -14 -37 c-17 -47 -26 -48 -34
-3 -4 20 -13 35 -21 35 -12 0 -11 -8 2 -47z"/>
<path d="M4355 3172 c-6 -4 -16 -50 -23 -103 -47 -382 -317 -731 -680 -879
-83 -34 -214 -67 -299 -76 -46 -5 -63 -11 -63 -21 0 -34 253 17 399 80 248
108 475 333 583 579 46 104 84 248 94 352 7 78 6 81 -11 68z"/>
<path d="M2100 3121 c0 -59 28 -194 57 -274 53 -148 151 -317 184 -317 15 0
10 13 -30 73 -59 88 -91 150 -124 242 -27 77 -55 207 -59 273 -3 55 -28 59
-28 3z"/>
<path d="M4276 3138 c-2 -13 -9 -57 -15 -98 -31 -203 -151 -434 -299 -572
-164 -153 -392 -264 -591 -286 -41 -4 -66 -12 -69 -21 -13 -38 242 18 385 84
307 142 548 451 602 772 22 131 22 143 6 143 -8 0 -16 -10 -19 -22z"/>
<path d="M2165 3093 c13 -104 53 -240 98 -335 55 -112 143 -238 168 -238 14 0
6 17 -38 78 -103 144 -169 304 -193 470 -9 60 -16 82 -27 82 -12 0 -13 -11 -8
-57z"/>
<path d="M3670 2814 c0 -3 21 -35 47 -72 l46 -67 -60 58 c-56 54 -62 58 -82
45 -11 -7 -21 -15 -21 -18 0 -3 35 -30 78 -60 42 -30 101 -73 131 -94 62 -45
62 -47 -44 102 -71 99 -95 126 -95 106z"/>
<path d="M3341 2610 c-10 -5 -28 -99 -57 -295 -24 -158 -45 -290 -49 -293 -3
-3 -5 117 -5 266 l0 272 -42 -17 c-24 -9 -47 -19 -52 -24 -4 -4 15 -142 45
-308 29 -165 54 -299 55 -298 5 5 125 699 122 703 -2 1 -10 -1 -17 -6z"/>
<path d="M2456 2385 c65 -61 191 -149 269 -188 84 -42 215 -84 314 -101 119
-20 152 -21 145 -2 -3 9 -30 16 -72 21 -221 23 -492 147 -627 285 -24 25 -48
40 -63 40 -22 0 -18 -6 34 -55z"/>
<path d="M2525 2410 c28 -31 154 -115 230 -152 157 -79 415 -137 415 -94 0 9
-20 15 -67 19 -151 13 -346 90 -485 191 -42 31 -84 56 -94 56 -16 0 -16 -1 1
-20z"/>
<path d="M3200 1791 c-8 -16 -5 -23 15 -39 14 -11 25 -25 25 -30 0 -19 -20
-24 -37 -10 -14 11 -15 11 -11 -2 11 -34 68 -17 68 20 0 10 -11 25 -25 34 -28
19 -24 41 6 33 11 -3 19 -1 19 4 0 17 -49 9 -60 -10z"/>
</g>
</svg>
